<mxfile host="app.diagrams.net" modified="2021-05-31T18:06:25.217Z" agent="5.0 (X11)" etag="e6Oe2Ma7ec5MIlTrOQej" version="14.7.3" type="github">
  <diagram id="q2G_-PPmdE-SMA_Du7N_" name="Page-1">
    <mxGraphModel dx="973" dy="722" grid="1" gridSize="10" guides="1" tooltips="1" connect="1" arrows="1" fold="1" page="1" pageScale="1" pageWidth="850" pageHeight="1100" math="0" shadow="0">
      <root>
        <mxCell id="0" />
        <mxCell id="1" parent="0" />
        <mxCell id="lL4FD40Lk23T4WLXlxyA-21" value="" style="rounded=0;whiteSpace=wrap;html=1;strokeColor=#CCCCCC;" parent="1" vertex="1">
          <mxGeometry x="367.5" y="340" width="205" height="150" as="geometry" />
        </mxCell>
        <mxCell id="lL4FD40Lk23T4WLXlxyA-22" value="wg0.conf" style="rounded=0;whiteSpace=wrap;html=1;align=center;strokeColor=#000033;fontColor=#000033;" parent="1" vertex="1">
          <mxGeometry x="496" y="330" width="60" height="20" as="geometry" />
        </mxCell>
        <mxCell id="lL4FD40Lk23T4WLXlxyA-11" value="" style="rounded=0;whiteSpace=wrap;html=1;strokeColor=#CCCCCC;" parent="1" vertex="1">
          <mxGeometry x="81.5" y="340" width="205" height="150" as="geometry" />
        </mxCell>
        <mxCell id="lL4FD40Lk23T4WLXlxyA-1" value="" style="aspect=fixed;perimeter=ellipsePerimeter;html=1;align=center;shadow=0;dashed=0;spacingTop=3;image;image=img/lib/active_directory/generic_server.svg;" parent="1" vertex="1">
          <mxGeometry x="140" y="210" width="50.4" height="90" as="geometry" />
        </mxCell>
        <mxCell id="lL4FD40Lk23T4WLXlxyA-3" value="" style="html=1;strokeWidth=1;shadow=0;dashed=0;shape=mxgraph.ios7.misc.vpn;fillColor=#007AFF;strokeColor=none;buttonText=;strokeColor2=#222222;fontColor=#222222;fontSize=8;verticalLabelPosition=bottom;verticalAlign=top;align=center;" parent="1" vertex="1">
          <mxGeometry x="310" y="229" width="40" height="42" as="geometry" />
        </mxCell>
        <mxCell id="lL4FD40Lk23T4WLXlxyA-4" value="" style="endArrow=none;dashed=1;html=1;" parent="1" edge="1">
          <mxGeometry width="50" height="50" relative="1" as="geometry">
            <mxPoint x="200" y="260" as="sourcePoint" />
            <mxPoint x="460" y="260" as="targetPoint" />
          </mxGeometry>
        </mxCell>
        <mxCell id="lL4FD40Lk23T4WLXlxyA-5" value="10.0.14.3" style="text;html=1;strokeColor=none;fillColor=none;align=center;verticalAlign=middle;whiteSpace=wrap;rounded=0;fontColor=#808080;" parent="1" vertex="1">
          <mxGeometry x="200" y="262" width="40" height="20" as="geometry" />
        </mxCell>
        <mxCell id="lL4FD40Lk23T4WLXlxyA-6" value="10.0.14.0/24" style="text;html=1;align=center;verticalAlign=middle;resizable=0;points=[];autosize=1;strokeColor=none;" parent="1" vertex="1">
          <mxGeometry x="290" y="271" width="80" height="20" as="geometry" />
        </mxCell>
        <mxCell id="lL4FD40Lk23T4WLXlxyA-8" value="10.0.14.10" style="text;html=1;strokeColor=none;fillColor=none;align=center;verticalAlign=middle;whiteSpace=wrap;rounded=0;fontColor=#808080;" parent="1" vertex="1">
          <mxGeometry x="420" y="262" width="40" height="20" as="geometry" />
        </mxCell>
        <mxCell id="R6EIbLXyK4rClFMooKor-12" style="edgeStyle=orthogonalEdgeStyle;rounded=0;orthogonalLoop=1;jettySize=auto;html=1;entryX=0.5;entryY=1;entryDx=0;entryDy=0;dashed=1;" edge="1" parent="1" target="R6EIbLXyK4rClFMooKor-10">
          <mxGeometry relative="1" as="geometry">
            <mxPoint x="163" y="305" as="sourcePoint" />
            <Array as="points">
              <mxPoint x="163" y="305" />
            </Array>
          </mxGeometry>
        </mxCell>
        <mxCell id="lL4FD40Lk23T4WLXlxyA-10" value="&lt;div&gt;private IP&lt;br&gt;&lt;/div&gt;&lt;div&gt;172.16.1.10&lt;/div&gt;" style="text;html=1;strokeColor=none;fillColor=none;align=left;verticalAlign=middle;whiteSpace=wrap;rounded=0;" parent="1" vertex="1">
          <mxGeometry x="110" y="300" width="70" height="20" as="geometry" />
        </mxCell>
        <mxCell id="lL4FD40Lk23T4WLXlxyA-12" value="&lt;div&gt;[Interface]&lt;/div&gt;&lt;div&gt;Address = 10.0.14.3/24&lt;/div&gt;&lt;div&gt;PrivateKey = &amp;lt;serverPrivateKey&amp;gt;&lt;/div&gt;&lt;div&gt;&lt;br&gt;&lt;/div&gt;&lt;div&gt;[Peer]&lt;/div&gt;&lt;div&gt;PublicKey = &amp;lt;clientPublicKey&amp;gt;&lt;/div&gt;&lt;div&gt;AllowedIPs = 10.0.14.10/32&lt;br&gt;&lt;/div&gt;&lt;div&gt;&lt;br&gt;&lt;/div&gt;" style="text;html=1;strokeColor=none;fillColor=none;align=left;verticalAlign=top;whiteSpace=wrap;rounded=0;" parent="1" vertex="1">
          <mxGeometry x="90" y="357" width="180" height="110" as="geometry" />
        </mxCell>
        <mxCell id="lL4FD40Lk23T4WLXlxyA-13" value="&lt;div&gt;&amp;lt;publicIP&amp;gt;:51820/udp&lt;/div&gt;" style="text;html=1;strokeColor=none;fillColor=none;align=left;verticalAlign=middle;whiteSpace=wrap;rounded=0;" parent="1" vertex="1">
          <mxGeometry x="180.4" y="200" width="109.6" height="20" as="geometry" />
        </mxCell>
        <mxCell id="lL4FD40Lk23T4WLXlxyA-16" value="&lt;div&gt;[Interface]&lt;/div&gt;&lt;div&gt;Address = 10.0.14.6/24&lt;/div&gt;&lt;div&gt;PrivateKey = &amp;lt;clientPrivateKey&amp;gt;&lt;/div&gt;&lt;div&gt;&lt;br&gt;&lt;/div&gt;&lt;div&gt;[Peer]&lt;/div&gt;&lt;div&gt;PublicKey = &amp;lt;serverPublicKey&amp;gt;&lt;/div&gt;&lt;div&gt;AllowedIPs = 172.16.0.0/16&lt;/div&gt;&lt;div&gt;Endpoint = &amp;lt;publicIP&amp;gt;:51820&lt;br&gt;&lt;/div&gt;&lt;div&gt;&lt;br&gt;&lt;/div&gt;" style="text;html=1;fillColor=none;align=left;verticalAlign=top;whiteSpace=wrap;rounded=0;perimeterSpacing=0;" parent="1" vertex="1">
          <mxGeometry x="380" y="353" width="200" height="137" as="geometry" />
        </mxCell>
        <mxCell id="lL4FD40Lk23T4WLXlxyA-18" value="wg0.conf" style="rounded=0;whiteSpace=wrap;html=1;align=center;strokeColor=#000033;fontColor=#000033;" parent="1" vertex="1">
          <mxGeometry x="210" y="330" width="60" height="20" as="geometry" />
        </mxCell>
        <mxCell id="lL4FD40Lk23T4WLXlxyA-24" value="WireGuard Server" style="text;html=1;align=center;verticalAlign=middle;resizable=0;points=[];autosize=1;strokeColor=none;fontColor=#000033;fontSize=18;" parent="1" vertex="1">
          <mxGeometry x="81.5" y="160" width="160" height="30" as="geometry" />
        </mxCell>
        <mxCell id="lL4FD40Lk23T4WLXlxyA-25" value="WireGuard iPhone Client" style="text;html=1;align=center;verticalAlign=middle;resizable=0;points=[];autosize=1;strokeColor=none;fontColor=#000033;fontSize=18;" parent="1" vertex="1">
          <mxGeometry x="362" y="160" width="210" height="30" as="geometry" />
        </mxCell>
        <mxCell id="R6EIbLXyK4rClFMooKor-1" value="" style="aspect=fixed;perimeter=ellipsePerimeter;html=1;align=center;shadow=0;dashed=0;spacingTop=3;image;image=img/lib/active_directory/cell_phone.svg;" vertex="1" parent="1">
          <mxGeometry x="480" y="223" width="28.56" height="68" as="geometry" />
        </mxCell>
        <mxCell id="R6EIbLXyK4rClFMooKor-10" value="" style="shape=image;html=1;verticalAlign=top;verticalLabelPosition=bottom;labelBackgroundColor=#ffffff;imageAspect=0;aspect=fixed;image=https://cdn1.iconfinder.com/data/icons/ecommerce-and-business-icon-set/128/qr-code-iphone.png;strokeWidth=1;rotation=90;" vertex="1" parent="1">
          <mxGeometry x="530" y="260" width="90" height="90" as="geometry" />
        </mxCell>
        <mxCell id="R6EIbLXyK4rClFMooKor-13" value="qrencode" style="text;html=1;align=center;verticalAlign=middle;resizable=0;points=[];autosize=1;strokeColor=none;" vertex="1" parent="1">
          <mxGeometry x="405" y="310" width="70" height="20" as="geometry" />
        </mxCell>
      </root>
    </mxGraphModel>
  </diagram>
</mxfile>
